Coordinates
version=1
nRows=19
nColumns=36
inDegrees=yes

Units are S.I. units (second, meters, Newtons, ...)
If the header above contains a line with 'inDegrees', this indicates whether rotational values are in degrees (yes) or radians (no).

endheader
time	pelvis_tilt	pelvis_list	pelvis_rotation	pelvis_tx	pelvis_ty	pelvis_tz	hip_flexion_r	hip_adduction_r	hip_rotation_r	knee_angle_r	knee_angle_r_beta	ankle_angle_r	subtalar_angle_r	mtp_angle_r	hip_flexion_l	hip_adduction_l	hip_rotation_l	knee_angle_l	knee_angle_l_beta	ankle_angle_l	subtalar_angle_l	mtp_angle_l	lumbar_extension	lumbar_bending	lumbar_rotation	arm_flex_r	arm_add_r	arm_rot_r	elbow_flex_r	pro_sup_r	arm_flex_l	arm_add_l	arm_rot_l	elbow_flex_l	pro_sup_l
     45.36666670	      5.19167676	     -0.70167167	     -0.60981383	      0.67131869	      1.02125490	      0.70143271	     17.35754574	      0.04049077	     -1.60649975	      9.25195921	      0.16147715	     -0.51034143	      1.33384947	     -7.49999987	    -13.86905764	      0.25249823	      0.61026681	     14.86523139	      0.25944723	     23.58118814	     -2.15543947	     -7.49999987	    -15.30302149	      0.06556584	      4.28955934	     -2.08493884	    -14.21088269	     -1.76256216	     22.87175662	     90.99561632	     19.26255731	    -14.43446567	     23.82754205	     29.62241751	     86.45078965
     45.38333330	      5.13568086	     -1.30011495	     -0.63884372	      0.67384241	      1.02330638	      0.70409826	     17.39919812	      0.78952940	     -1.91171613	     10.93327753	      0.19082169	     -1.42712387	      0.04419096	     -7.49999987	    -13.12118575	     -1.06969160	     -0.85549177	     17.73063214	      0.30945791	     24.84389800	     -1.71775271	     -7.49999987	    -15.49177159	      0.82608902	      3.77371261	     -0.33128839	    -14.70759237	      1.04015836	     21.56062986	     92.49531539	     18.53015697	    -14.08311257	     21.15795118	     29.12956569	     87.75953936
     45.40000000	      4.97813370	     -2.01071334	     -0.80477785	      0.67782375	      1.02537192	      0.70700477	     17.49688150	      1.65886380	     -2.21661765	     12.62290441	      0.22031124	     -1.99354596	     -0.72641091	     -7.49999987	    -12.00859771	     -2.67537288	     -2.38306418	     21.51614339	      0.37552754	     25.57634354	     -1.83934648	     -7.49999987	    -15.49438605	      1.69635646	      3.94175644	      0.36054484	    -14.90159960	      1.31998295	     21.43766380	     92.56694363	     17.84322894	    -13.81450757	     20.60509764	     28.85151450	     87.99541363
     45.41666670	      4.72265776	     -2.86569651	     -0.95833151	      0.68220255	      1.02777763	      0.70966309	     17.63633865	      2.66949335	     -2.42424794	     14.27190735	      0.24909177	     -2.08047245	     -1.13371692	     -7.49999987	    -10.43261417	     -4.61936520	     -3.80416535	     26.09986027	      0.45552850	     26.48858304	     -1.90736990	     -7.49999987	    -15.27528160	      2.75199576	      4.00751610	      1.07506206	    -15.15933188	      1.96194269	     21.16149685	     92.63610247	     16.87995057	    -13.39563715	     19.80821418	     28.21504349	     88.11394666
     45.43333330	      4.50434216	     -3.73153481	     -1.18883198	      0.68597393	      1.02995791	      0.71306151	     17.67422138	      3.72424300	     -2.40042397	     15.87618975	      0.27709178	     -1.54575925	     -1.33274507	     -7.49999987	     -8.71577431	     -6.65227471	     -5.01271473	     30.81959829	      0.53790346	     27.10961451	     -2.11529402	     -7.49999987	    -15.13433799	      3.86202704	      4.00290905	      2.04307204	    -15.42363657	      3.21317271	     20.60532843	     92.89897348	     15.65020602	    -12.92742039	     18.50708490	     27.38815269	     88.40052913
     45.45000000	      4.45895655	     -4.71264050	     -1.31510861	      0.68852632	      1.03104288	      0.71647421	     17.34703860	      4.89594607	     -2.36411540	     17.21001614	      0.30037145	     -0.67425227	     -1.42697665	     -7.49999987	     -6.97274552	     -8.84487606	     -5.88580747	     35.77103963	      0.62432242	     27.62107152	     -2.28415888	     -7.49999987	    -15.12347371	      5.15608124	      4.17154270	      2.79945703	    -15.74713439	      3.87497218	     20.47981528	     93.08863287	     14.50506183	    -12.46640370	     17.92574575	     26.61971318	     88.60899298
     45.46666670	      4.41085136	     -5.67823302	     -1.49665348	      0.68958088	      1.03056214	      0.71824517	     16.83618976	      6.12440987	     -2.04737516	     18.38271024	      0.32083882	      0.68141170	     -1.80694729	     -7.49999987	     -4.97619938	    -10.98373481	     -6.48389536	     41.21101138	      0.71926784	     27.39096375	     -2.72768966	     -7.49999987	    -14.94544047	      6.53871010	      3.15908336	      5.18042840	    -16.23368708	      8.46848098	     19.09166054	     92.87632269	     11.97555695	    -11.90934425	     12.79108054	     26.70571148	     92.45681946
     45.48333330	      4.54248459	     -6.69072984	     -1.56746763	      0.68961755	      1.03021611	      0.71804889	     15.77012546	      7.42454050	     -1.72042054	     19.10307894	      0.33341162	      2.48421246	     -2.20455649	     -7.49999987	     -2.93300061	    -13.03661637	     -6.53000547	     47.10805530	      0.82219067	     25.75600616	     -3.64302899	     -7.49999987	    -14.84701171	      7.93596714	      3.54458120	      6.19611594	    -16.77393045	      9.53942289	     18.98055640	     91.70500430	     11.13237568	    -11.15311541	     12.78759883	     25.12835369	     91.44542811
     45.50000000	      4.90109067	     -7.64265319	     -1.61458301	      0.68986252	      1.03046958	      0.71813127	     14.05095035	      8.76449045	     -1.04882559	     19.14593929	      0.33415968	      4.14473816	     -3.23765725	     -7.49999987	     -1.26845610	    -14.73441709	     -6.13230292	     52.74046338	      0.92049474	     22.99727592	     -4.74181646	     -7.49999987	    -14.95743497	      9.25713039	      4.12741369	      6.96267167	    -17.58949844	     10.91561386	     19.64710081	     90.95696635	     10.39006948	    -10.42876822	     13.28388241	     23.76208476	     90.96399577
     45.51666670	      5.38338414	     -8.38937291	     -1.57113875	      0.69012798	      1.03034994	      0.71949033	     11.94838190	      9.86915027	     -0.53398173	     18.68572972	      0.32612751	      5.69357404	     -3.89117513	     -7.49999987	      0.04347077	    -15.85866470	     -5.38349326	     57.67894609	      1.00668752	     19.93884963	     -5.87745941	     -7.49999987	    -15.18713267	     10.28382706	      4.84784839	      7.47918952	    -18.41244216	     12.27085445	     20.51368201	     90.75248746	      9.93395216	     -9.76140916	     14.09671254	     22.18373267	     91.33992318
     45.53333330	      5.97033430	     -8.85808323	     -1.41642320	      0.68948102	      1.03085452	      0.72120147	      9.55335100	     10.61984819	     -0.19153055	     17.77002866	      0.31014551	      7.05850004	     -3.98169259	     -7.49999987	      1.14865745	    -16.34874464	     -4.41406617	     61.76761105	      1.07804818	     17.04528468	     -6.82953234	     -7.49999987	    -15.62359815	     10.98371512	      5.43766880	      7.89512368	    -19.07484195	     12.78783662	     21.45586056	     89.78667859	      9.43574645	     -9.18769215	     14.68285156	     21.01688330	     90.90623401
     45.55000000	      6.46282613	     -9.05797658	     -1.15049897	      0.68844644	      1.03129226	      0.72223035	      7.19660934	     11.06967553	      0.20120526	     16.58409207	      0.28944701	      7.96651904	     -4.10996836	     -7.49999987	      2.43768494	    -16.33235444	     -3.32337681	     65.11232328	      1.13642442	     14.83399820	     -7.34716705	     -7.49999987	    -16.00792886	     11.26505811	      6.43607563	      7.58278715	    -19.91127488	     13.28664548	     22.98431130	     89.46174111	      9.65219640	     -8.70897197	     16.56858034	     19.37778755	     91.92914434
     45.56666670	      6.87225508	     -8.97398895	     -0.79856122	      0.68714694	      1.03255593	      0.72300337	      4.88375013	     11.17475242	      0.53083035	     15.23930038	      0.26597597	      8.77005317	     -3.74336676	     -7.49999987	      3.97054233	    -15.79472672	     -2.20296923	     67.46516925	      1.17748933	     13.37007547	     -7.49652001	     -7.49999987	    -16.37136549	     11.27705467	      6.65451986	      8.00512837	    -20.24122898	     13.13330305	     23.67270806	     89.37002312	      9.16275763	     -8.53590825	     16.79429908	     19.02952682	     92.01019310
     45.58333330	      7.45844415	     -8.51560134	     -0.48568790	      0.68459414	      1.03379653	      0.72503758	      2.42018853	     10.84497431	      0.87145694	     13.92195886	      0.24298402	      9.53697771	     -2.80769668	     -7.49999987	      5.44546315	    -14.65511878	     -1.24317863	     68.63829282	      1.19796420	     12.57018525	     -7.45820191	     -7.49999987	    -17.24665682	     10.67723515	      7.99083291	      6.76931109	    -21.11732821	     11.71927003	     27.05622456	     87.93530100	     10.16739234	     -8.25913573	     20.10280334	     17.27664888	     93.19644080
     45.60000000	      7.57912473	     -7.93610681	     -0.44544636	      0.68128027	      1.03499033	      0.72964449	      0.59510150	     10.43264485	      1.57808797	     12.80957105	      0.22356919	      9.92209131	     -2.39092949	     -7.49999987	      7.53189753	    -13.44463660	     -0.63704723	     68.90453173	      1.20261095	     12.31163967	     -7.13935836	     -7.49999987	    -17.54927635	      9.96686313	      8.24538528	      7.48884586	    -21.21358981	     11.55898494	     27.66238768	     87.86303651	      9.77622720	     -8.27802660	     20.16778716	     17.09256544	     93.18631128
     45.61666670	      8.27753088	     -7.23349830	     -0.21445874	      0.67931781	      1.03695107	      0.73461174	     -1.83928922	      9.85559979	      1.85617263	     11.60798678	      0.20259759	     10.11432107	     -1.72731393	     -7.49999987	      8.98499331	    -12.08865302	     -0.00166975	     68.23077115	      1.19085161	     12.25272850	     -6.85457238	     -7.49999987	    -18.76804171	      9.18735582	      7.80343886	      8.16754023	    -21.27093095	     11.10093669	     30.41106925	     85.67590602	      9.00982569	     -8.67049461	     20.42747842	     17.58490206	     90.96975686
     45.63333330	      8.43056835	     -6.60784666	     -0.25313854	      0.67912339	      1.03837654	      0.73831148	     -3.48489527	      9.33532100	      2.07350113	     10.78642553	      0.18825864	     10.53137993	     -0.91224774	     -7.49999987	     10.89562035	    -10.94899391	      0.33081946	     67.04732331	      1.17019655	     12.39833853	     -6.66696532	     -7.49999987	    -19.24612193	      8.26958554	      8.27067198	      8.37076580	    -21.35402401	     10.43473940	     32.25776589	     84.83013781	      9.23798940	     -8.64223928	     22.03436282	     16.40203784	     91.13745882
     45.65000000	      8.67176512	     -6.00322691	     -0.31691648	      0.67867755	      1.03853869	      0.73959426	     -5.23512754	      8.83531786	      2.50160328	      9.96305932	      0.17388819	     10.72461946	     -0.62093854	     -7.49999987	     12.36466729	     -9.91739303	      0.44359252	     65.03768923	      1.13512181	     12.65362792	     -6.46591267	     -7.49999987	    -19.86419915	      7.42335868	      8.25884572	      8.80048753	    -21.15117933	      9.33582143	     34.22446594	     84.93576851	      8.67017720	     -8.88022433	     21.98243367	     16.72570797	     91.69648936
     45.66666670	      8.94428496	     -5.42722856	     -0.36710911	      0.67658260	      1.03903182	      0.73955738	     -6.95390359	      8.33444448	      2.95407914	      9.23973222	      0.16126375	     10.84196406	     -0.64131241	     -7.49999987	     13.43037063	     -9.00231410	      0.31845960	     62.12903976	      1.08435630	     12.90580268	     -6.40247213	     -7.49999987	    -20.47917136	      6.61232489	      8.04402900	      9.42517452	    -20.92043429	      9.04321831	     35.81692542	     82.95575421	      8.01159328	     -9.06186201	     21.75441117	     17.19364376	     89.51133747
